<?xml version="1.0" standalone="no"?>
<!DOCTYPE svg PUBLIC "-//W3C//DTD SVG 20010904//EN"
 "http://www.w3.org/TR/2001/REC-SVG-20010904/DTD/svg10.dtd">
<svg version="1.0" xmlns="http://www.w3.org/2000/svg"
 width="600.000000pt" height="327.000000pt" viewBox="0 0 600.000000 327.000000"
 preserveAspectRatio="xMidYMid meet">
<g transform="translate(0.000000,327.000000) scale(0.100000,-0.100000)"
fill="#000000" stroke="none">
<path d="M2945 3020 l-50 -51 -18 26 c-20 27 -64 34 -85 13 -15 -15 -16 -50
-2 -64 7 -7 -23 -19 -93 -36 -157 -39 -332 -122 -463 -219 -23 -17 -50 -29
-60 -27 -14 3 0 18 56 60 106 79 230 148 335 185 50 17 80 32 68 32 -67 2
-306 -113 -431 -208 l-94 -71 -75 0 -76 0 7 -77 7 -78 -45 -60 c-54 -72 -145
-245 -175 -334 -33 -96 -59 -214 -66 -294 -6 -66 -5 -70 9 -53 9 11 16 35 16
53 0 47 26 168 56 260 47 146 204 427 204 365 0 -13 -13 -43 -30 -67 -91 -132
-171 -339 -199 -517 -8 -47 4 -69 13 -25 30 145 42 192 63 252 27 74 98 220
132 270 20 29 21 29 21 6 0 -13 -15 -49 -34 -80 -68 -113 -136 -304 -151 -427
-6 -47 -12 -56 -91 -135 l-84 -84 84 -85 c67 -68 86 -93 92 -124 5 -30 4 -38
-7 -34 -8 3 -16 15 -17 29 -2 13 -8 29 -14 34 -7 7 -9 -3 -4 -32 5 -34 3 -43
-8 -43 -11 0 -17 17 -22 60 -3 33 -13 65 -20 71 -18 14 -18 2 -3 -92 10 -56
15 -68 28 -65 9 3 66 14 126 25 184 34 389 71 414 77 17 3 21 8 14 15 -8 8
-42 5 -112 -7 -55 -10 -104 -15 -107 -11 -13 12 -25 175 -19 247 32 365 236
663 559 816 146 69 241 89 433 89 89 0 164 3 168 6 10 10 -102 21 -210 21
-267 -2 -499 -103 -695 -303 -134 -136 -225 -308 -264 -501 -17 -83 -21 -274
-7 -345 7 -38 6 -43 -10 -43 -14 0 -19 7 -19 28 0 15 -3 44 -7 65 l-6 38 -36
-35 -37 -36 -37 31 c-21 17 -39 30 -41 28 -2 -2 1 -37 7 -77 5 -40 7 -75 3
-79 -16 -16 -28 22 -38 130 -35 348 92 711 337 965 386 401 981 486 1469 210
88 -50 171 -116 267 -215 129 -131 212 -270 274 -456 29 -87 68 -284 59 -296
-2 -2 -10 -1 -19 2 -9 4 -15 18 -15 36 0 38 -30 184 -40 194 -4 5 -17 -8 -30
-27 -23 -39 -41 -43 -80 -21 -14 8 -28 14 -31 15 -3 0 2 -39 12 -87 23 -107
24 -153 5 -153 -9 0 -15 19 -19 58 -15 142 -80 315 -168 443 -67 98 -237 264
-254 247 -3 -3 45 -56 107 -119 118 -120 171 -198 228 -337 29 -73 58 -190 62
-257 3 -34 0 -40 -19 -43 -12 -2 -27 -10 -33 -18 -16 -18 -3 -18 86 0 38 8
131 27 207 42 119 24 141 31 155 52 23 35 6 76 -33 80 -32 4 -58 -20 -48 -44
8 -20 20 -17 26 7 7 26 31 20 35 -8 7 -48 -63 -55 -93 -9 -9 13 -31 84 -49
157 -32 130 -85 260 -139 346 -15 24 -27 53 -27 65 0 20 3 18 24 -13 72 -105
167 -344 183 -455 5 -42 23 -62 23 -26 -1 83 -100 347 -176 468 -30 48 -54 96
-52 107 2 15 11 7 40 -34 89 -130 153 -276 192 -434 13 -49 27 -89 32 -87 14
5 6 58 -22 152 -46 152 -115 294 -203 414 -34 48 -35 52 -32 128 l3 78 -77 0
c-75 0 -79 1 -124 38 -108 89 -283 193 -298 178 -8 -8 -8 -8 62 -46 69 -38
206 -132 225 -155 28 -33 -26 -14 -85 30 -117 89 -333 182 -507 219 -24 5 -26
9 -21 40 4 27 1 36 -17 49 -27 19 -61 9 -75 -21 -5 -12 -12 -22 -15 -22 -3 0
-28 23 -55 50 -27 28 -52 50 -55 50 -3 0 -28 -23 -55 -50z m170 -99 l30 -34
-64 7 c-35 3 -67 8 -69 11 -3 3 3 14 12 24 17 19 17 21 -1 45 -10 14 -20 25
-23 25 -3 0 -13 -11 -23 -25 -18 -24 -18 -26 -1 -45 9 -10 15 -21 13 -23 -2
-3 -33 -8 -69 -12 l-65 -7 49 54 c27 30 60 65 74 78 l26 23 40 -44 c23 -24 55
-59 71 -77z m-271 73 c9 -4 16 -18 16 -33 0 -41 -45 -77 -113 -91 -133 -27
-327 -108 -435 -182 -23 -16 -50 -28 -60 -26 -12 2 2 16 44 45 128 87 302 161
456 192 67 14 88 33 66 59 -25 28 -10 50 26 36z m352 -6 c4 -6 -1 -17 -12 -25
-25 -19 -8 -45 37 -56 129 -33 224 -62 290 -91 98 -43 261 -148 237 -154 -10
-2 -38 11 -63 28 -106 73 -296 152 -430 180 -66 13 -115 49 -115 85 0 36 39
60 56 33z m-1078 -410 l-3 -63 -62 -3 -63 -3 0 66 0 65 65 0 66 0 -3 -62z
m122 58 c0 -2 -20 -20 -45 -40 l-45 -37 0 40 0 41 45 0 c25 0 45 -2 45 -4z
m1610 -38 l0 -42 -37 35 c-21 18 -42 37 -47 41 -6 5 11 8 37 8 l47 0 0 -42z
m160 -23 l0 -66 -62 3 -63 3 -3 63 -3 62 66 0 65 0 0 -65z m-1940 -102 c-1 -5
-16 -26 -35 -47 l-35 -39 0 31 c0 16 -3 37 -6 46 -5 13 2 16 35 16 23 0 41 -3
41 -7z m1940 -15 c0 -13 -3 -33 -6 -45 -6 -22 -6 -22 -28 5 -53 66 -53 62 -7
62 36 0 41 -3 41 -22z m129 -602 c15 -79 14 -126 -1 -127 -22 -1 -52 -7 -74
-14 -19 -6 -22 -2 -27 52 -3 32 -9 75 -13 97 -7 37 -6 38 14 27 32 -17 51 -13
64 14 15 34 24 22 37 -49z m106 -96 c3 -5 1 -10 -4 -10 -6 0 -11 5 -11 10 0 6
2 10 4 10 3 0 8 -4 11 -10z m-2475 -122 l0 -122 -60 59 -60 59 58 62 c31 34
58 62 60 63 1 0 2 -54 2 -121z m198 -165 l10 -42 -50 -10 c-27 -6 -53 -11 -57
-11 -9 0 -26 89 -18 96 2 2 15 -5 29 -15 l25 -20 23 24 c13 14 25 24 26 22 2
-1 7 -21 12 -44z"/>
<path d="M2014 2588 c3 -13 6 -29 6 -35 0 -8 14 -13 36 -13 34 0 35 1 32 33
-3 29 -6 32 -42 35 -36 3 -38 2 -32 -20z"/>
<path d="M3928 2599 c-10 -5 -18 -21 -18 -34 0 -22 5 -25 35 -25 33 0 35 2 35
35 0 37 -17 45 -52 24z"/>
<path d="M4087 1800 c3 -30 7 -57 9 -59 8 -9 2 75 -6 94 -5 12 -6 -1 -3 -35z"/>
<path d="M1699 1644 c-11 -14 -10 -18 6 -30 16 -12 21 -12 34 0 12 12 12 18 1
30 -16 20 -24 20 -41 0z"/>
<path d="M2690 2960 c-24 -8 -24 -8 7 -9 17 -1 35 4 38 9 7 11 -9 11 -45 0z"/>
<path d="M3275 2960 c55 -22 246 -82 251 -78 7 8 -88 44 -176 68 -76 20 -111
25 -75 10z"/>
<path d="M2910 2750 c0 -63 2 -70 20 -70 15 0 20 7 20 25 0 14 4 25 8 25 5 0
14 -11 20 -25 7 -15 20 -25 32 -25 19 0 20 1 5 29 -9 19 -11 32 -5 36 14 9 13
48 -2 63 -7 7 -31 12 -55 12 l-43 0 0 -70z m69 36 c10 -12 8 -17 -8 -26 -19
-9 -21 -8 -21 15 0 28 12 32 29 11z"/>
<path d="M3072 2768 c-1 -29 -5 -60 -8 -70 -6 -21 64 -35 96 -18 42 22 50 99
12 119 -9 5 -35 12 -57 15 l-40 7 -3 -53z m76 10 c27 -27 7 -78 -31 -78 -16 0
-19 5 -13 31 3 17 6 38 6 45 0 17 22 18 38 2z"/>
<path d="M2789 2803 c-23 -5 -53 -153 -32 -153 8 0 17 9 20 19 6 23 52 35 60
15 6 -15 43 -20 43 -5 0 8 -65 121 -72 125 -2 1 -10 1 -19 -1z m21 -63 c9 -16
8 -20 -5 -20 -8 0 -15 9 -15 20 0 11 2 20 5 20 2 0 9 -9 15 -20z"/>
<path d="M2616 2749 c-36 -28 -33 -83 5 -112 24 -17 31 -18 63 -7 38 12 41 17
26 40 -6 9 -10 10 -10 3 0 -21 -40 -26 -61 -7 -34 31 -18 74 28 74 16 0 21 4
17 15 -9 21 -37 19 -68 -6z"/>
<path d="M3332 2753 c-21 -8 -43 -61 -36 -88 7 -27 49 -55 83 -55 19 0 46 52
34 64 -13 12 -31 5 -36 -14 -7 -28 -35 -25 -43 4 -8 34 12 66 41 66 13 0 27
-4 30 -10 9 -15 25 -12 25 5 0 27 -59 44 -98 28z"/>
<path d="M3471 2644 c-46 -43 -51 -52 -36 -58 11 -4 22 -1 26 6 11 18 43 -2
47 -30 3 -17 29 -39 37 -30 2 2 6 35 10 75 6 63 5 72 -12 80 -14 7 -29 -2 -72
-43z m59 -1 c-1 -18 -19 -35 -29 -28 -9 5 -9 10 0 21 12 15 29 19 29 7z"/>
<path d="M2402 2658 c-29 -18 -31 -22 -19 -37 7 -9 22 -33 32 -54 11 -21 23
-41 27 -43 12 -8 78 37 78 53 0 13 -4 13 -26 -2 -20 -13 -29 -14 -38 -5 -8 8
-7 15 7 24 9 7 17 19 17 26 0 7 -7 10 -17 5 -29 -11 -35 -11 -40 2 -3 7 7 18
21 24 14 7 23 16 20 20 -8 13 -25 10 -62 -13z"/>
<path d="M3611 2567 c-30 -39 -37 -55 -29 -65 9 -10 15 -7 31 17 25 41 31 39
23 -9 l-6 -41 41 21 c42 22 44 15 7 -26 -17 -19 -17 -22 -3 -34 8 -7 17 -11
18 -9 29 42 64 86 75 92 10 7 10 12 1 23 -15 18 -33 18 -68 -1 l-28 -14 4 43
c8 66 -16 67 -66 3z"/>
<path d="M2310 2594 c-10 -11 -10 -18 4 -33 15 -17 15 -19 -3 -35 -18 -16 -20
-16 -35 5 -12 18 -18 20 -30 10 -14 -11 -10 -20 26 -66 35 -46 44 -52 59 -42
18 11 17 12 -1 33 -20 21 -20 21 -1 39 20 17 21 17 32 -9 14 -30 22 -32 40
-10 8 10 9 18 2 22 -5 4 -26 28 -46 54 -30 40 -37 45 -47 32z"/>
<path d="M3170 2566 c-76 -17 -137 -51 -160 -89 -17 -27 -20 -51 -20 -155 0
-119 -1 -124 -27 -157 l-27 -34 -28 24 c-80 68 -203 21 -224 -84 -5 -21 -16
-37 -35 -47 -16 -8 -37 -29 -46 -47 -18 -31 -18 -28 -21 192 -2 198 0 226 14
242 15 17 34 19 191 19 147 0 173 2 173 15 0 13 -26 15 -170 15 -102 0 -179
-4 -193 -11 -29 -13 -47 -48 -47 -88 0 -27 -4 -30 -100 -61 -131 -41 -143 -57
-115 -156 5 -17 -10 -33 -84 -92 -120 -95 -120 -98 -10 -243 l58 -76 -27 -38
c-57 -80 -31 -147 117 -300 71 -73 75 -75 91 -58 9 10 52 56 95 102 l79 84
-38 34 -38 35 26 27 26 27 -23 22 c-30 29 -85 29 -115 2 -12 -12 -22 -26 -22
-31 0 -6 -13 3 -29 20 -39 41 -90 43 -120 5 -25 -32 -26 -62 -6 -111 20 -47
12 -54 -15 -12 -40 66 -39 108 6 152 33 34 98 37 135 8 24 -19 25 -19 48 0 36
29 98 25 134 -8 l29 -28 33 39 c18 21 40 52 49 67 l17 29 -36 0 c-49 0 -105
53 -105 99 0 47 27 91 64 106 29 12 34 20 39 57 8 59 51 98 108 98 55 0 109
-51 109 -103 0 -29 5 -37 31 -47 35 -15 69 -63 69 -98 0 -57 -54 -112 -110
-112 -34 0 -37 -6 -14 -31 20 -23 9 -46 -13 -27 -20 16 -52 86 -53 112 0 18 1
18 23 -2 77 -73 186 40 111 115 -21 21 -32 24 -60 20 -32 -5 -46 5 -24 18 6 3
10 22 10 41 0 75 -84 111 -136 58 -26 -25 -29 -61 -10 -106 7 -15 3 -16 -27
-11 -71 11 -113 -72 -66 -131 26 -33 86 -37 114 -6 24 27 33 25 27 -6 -3 -19
7 -43 42 -93 25 -37 55 -76 66 -86 20 -18 20 -17 20 16 0 42 32 94 89 145 24
21 61 60 82 86 l37 47 18 -27 c9 -15 52 -62 95 -104 52 -51 81 -89 88 -112 19
-70 -20 -136 -90 -151 -17 -4 -26 -11 -23 -17 11 -17 148 -1 205 23 27 12 63
37 79 56 l30 34 -1 191 c0 142 -4 201 -15 226 -12 30 -12 40 0 77 11 30 14 80
13 171 -3 152 -11 170 -90 209 -90 43 -177 53 -277 31z m140 -31 c0 -11 -12
-15 -44 -15 -43 0 -63 10 -49 24 3 3 26 6 50 6 32 0 43 -4 43 -15z m77 -12
c-4 -3 -10 -3 -14 0 -3 4 0 7 7 7 7 0 10 -3 7 -7z m-273 -19 c23 -9 -28 -54
-54 -47 -26 7 -25 18 2 37 25 18 30 19 52 10z m229 -8 c125 -45 90 -132 -58
-144 -110 -8 -204 44 -175 97 27 52 150 76 233 47z m122 -2 c33 -21 32 -34 -3
-34 -33 0 -72 34 -50 43 21 9 28 8 53 -9z m-360 -110 c14 -9 22 -20 19 -25 -8
-14 -47 -10 -69 7 -17 13 -18 16 -5 24 21 13 27 12 55 -6z m370 10 c14 -6 14
-8 -1 -25 -16 -18 -64 -27 -64 -12 0 9 32 43 41 43 4 0 15 -3 24 -6z m-385
-96 c0 -21 -4 -22 -31 -8 -10 6 -19 19 -19 30 0 17 3 18 25 8 14 -6 25 -19 25
-30z m218 24 c2 -8 -10 -12 -42 -12 -35 0 -46 4 -46 15 0 12 10 15 42 13 23
-2 43 -9 46 -16z m182 2 c0 -16 -27 -43 -42 -44 -15 0 -8 33 10 46 23 18 32
17 32 -2z m-940 -298 l0 -274 -28 -4 -29 -4 -57 180 c-85 267 -92 294 -79 307
11 11 155 65 181 68 9 1 12 -60 12 -273z m760 234 c0 -17 -7 -20 -45 -20 -38
0 -45 3 -45 20 0 17 7 20 45 20 38 0 45 -3 45 -20z m-201 -39 l24 -19 -22 -7
c-25 -7 -76 20 -66 35 10 15 38 11 64 -9z m370 10 c10 -7 8 -12 -10 -25 -26
-18 -55 -21 -64 -7 -6 10 32 41 50 41 5 0 16 -4 24 -9z m-219 -23 c19 -1 55 1
80 5 36 6 41 6 26 -4 -31 -19 -136 -22 -186 -5 l-45 15 45 -5 c25 -2 61 -5 80
-6z m-170 -70 c0 -21 -4 -22 -31 -8 -10 6 -19 19 -19 30 0 17 3 18 25 8 14 -6
25 -19 25 -30z m220 27 c0 -11 -12 -15 -45 -15 -33 0 -45 4 -45 15 0 11 12 15
45 15 33 0 45 -4 45 -15z m180 3 c0 -14 -30 -48 -42 -48 -15 0 -8 32 10 46 21
17 32 17 32 2z m-501 -91 c0 -33 -2 -38 -9 -22 -12 28 -12 78 0 70 6 -3 10
-25 9 -48z m321 23 c0 -17 -7 -20 -45 -20 -38 0 -45 3 -45 20 0 17 7 20 45 20
38 0 45 -3 45 -20z m-255 0 c3 -5 4 -10 1 -10 -3 0 -8 5 -11 10 -3 6 -4 10 -1
10 3 0 8 -4 11 -10z m-267 -20 c-7 -10 -14 -17 -17 -15 -4 4 18 35 25 35 2 0
-1 -9 -8 -20z m-377 -173 c31 -95 55 -173 54 -175 -1 -1 -14 2 -29 8 -15 5
-47 10 -71 10 -43 0 -44 1 -109 89 -36 48 -66 98 -66 109 0 14 25 40 78 80 42
33 79 58 82 55 3 -2 30 -82 61 -176z m696 166 c-4 -3 -10 -3 -14 0 -3 4 0 7 7
7 7 0 10 -3 7 -7z m343 -38 c-7 -8 -16 -15 -21 -15 -16 0 -10 32 9 46 14 10
18 10 20 -2 2 -8 -2 -21 -8 -29z m-360 -7 c0 -21 -4 -22 -31 -8 -10 6 -19 19
-19 30 0 17 3 18 25 8 14 -6 25 -19 25 -30z m87 26 c-3 -3 -12 -4 -19 -1 -8 3
-5 6 6 6 11 1 17 -2 13 -5z m180 -1 c-4 -3 -10 -3 -14 0 -3 4 0 7 7 7 7 0 10
-3 7 -7z m-74 -10 c-13 -2 -33 -2 -45 0 -13 2 -3 4 22 4 25 0 35 -2 23 -4z
m218 -24 c-5 -13 -17 -31 -27 -40 -50 -44 -240 -75 -278 -46 -18 13 -9 15 85
19 109 5 150 20 203 75 25 26 30 24 17 -8z m-196 -19 c0 -10 -13 -16 -42 -18
-38 -3 -43 -1 -43 18 0 19 5 21 43 18 29 -2 42 -8 42 -18z m-205 -38 c0 -11
-8 -9 -32 5 -44 26 -48 45 -4 24 20 -9 35 -22 36 -29z m-412 -22 c-7 -10 -14
-17 -17 -15 -4 4 18 35 25 35 2 0 -1 -9 -8 -20z m807 -9 c-3 -12 -19 -28 -34
-36 -25 -12 -31 -12 -47 0 -12 9 -14 14 -6 15 7 0 29 11 49 25 41 27 48 26 38
-4z m-415 -5 c0 -3 -4 -8 -10 -11 -5 -3 -10 -1 -10 4 0 6 5 11 10 11 6 0 10
-2 10 -4z m285 -45 c41 -5 46 -8 25 -13 -14 -4 -48 -10 -75 -13 -43 -6 -53 -4
-69 14 l-19 21 44 -1 c24 0 67 -4 94 -8z m135 -9 c0 -5 -11 -19 -24 -31 -18
-17 -32 -22 -50 -17 -25 6 -46 -9 -24 -17 7 -2 -4 -8 -25 -12 -30 -6 -42 -4
-55 9 -16 16 -15 17 13 14 19 -2 51 8 90 29 64 34 75 38 75 25z m-845 -83 c35
-21 35 -21 18 -49 l-16 -29 -39 22 c-37 22 -38 23 -38 82 l0 60 20 -33 c11
-18 36 -42 55 -53z m836 2 c-15 -27 -45 -43 -66 -35 -13 5 -7 13 26 35 47 31
56 31 40 0z m-101 -45 c0 -11 -19 -15 -25 -6 -3 5 1 10 9 10 9 0 16 -2 16 -4z
m110 -9 c0 -18 -39 -53 -73 -66 -38 -15 -47 -14 -47 4 0 9 19 24 44 35 24 10
47 23 50 29 10 15 26 14 26 -2z m-21 -103 c-25 -27 -49 -32 -49 -10 0 18 64
59 69 45 2 -6 -7 -21 -20 -35z m-1111 20 c-16 -8 -28 -21 -28 -29 0 -7 -4 -17
-10 -20 -5 -3 -10 1 -10 9 0 22 36 56 58 56 12 -1 9 -5 -10 -16z m1032 -58 c0
-2 -13 -6 -29 -8 -17 -2 -28 -1 -25 4 5 8 54 12 54 4z"/>
<path d="M3187 2480 c-129 -41 -14 -144 124 -112 87 20 115 64 64 98 -30 19
-145 28 -188 14z"/>
<path d="M2417 2178 c-14 -31 -13 -34 12 -55 34 -29 34 -29 49 9 12 34 6 50
-30 69 -15 8 -20 4 -31 -23z"/>
<path d="M2260 1926 c0 -39 2 -41 46 -50 30 -7 31 -6 30 28 -1 30 -6 37 -30
46 -43 15 -46 13 -46 -24z"/>
<path d="M2940 2510 c0 -7 3 -10 7 -7 3 4 3 10 0 14 -4 3 -7 0 -7 -7z"/>
<path d="M2152 2457 c-30 -31 -41 -57 -24 -57 4 0 14 6 21 13 10 10 20 4 51
-29 33 -36 40 -40 53 -27 13 13 9 20 -27 53 -33 31 -39 41 -28 51 6 7 12 17
12 21 0 18 -28 6 -58 -25z"/>
<path d="M3766 2437 l-48 -49 33 -34 c37 -38 66 -31 30 7 -16 18 -18 25 -9 36
10 12 14 11 28 -8 12 -15 19 -18 24 -10 4 7 2 19 -5 27 -8 10 -9 18 -2 25 7 7
16 4 27 -12 12 -18 18 -21 28 -11 10 10 5 19 -22 45 l-35 32 -49 -48z"/>
<path d="M2636 2350 c-30 -36 -30 -54 2 -58 13 -2 19 -8 15 -18 -3 -9 1 -14
12 -14 11 0 15 5 11 15 -4 10 1 15 15 15 33 0 35 29 2 62 l-30 30 -27 -32z"/>
<path d="M2105 2306 c-16 -12 -18 -17 -7 -27 15 -16 36 1 30 25 -3 15 -5 15
-23 2z"/>
<path d="M3872 2297 c3 -25 31 -30 36 -6 2 10 -6 19 -18 22 -17 4 -21 1 -18
-16z"/>
<path d="M1996 2267 c-53 -92 -67 -119 -63 -123 2 -3 16 0 31 6 49 18 64 12
86 -31 12 -23 23 -39 24 -37 1 1 19 33 39 71 41 76 32 92 -12 20 l-29 -46 -16
32 c-16 29 -20 31 -53 25 l-36 -7 31 55 c18 31 32 58 32 62 0 16 -17 3 -34
-27z"/>
<path d="M3970 2294 c0 -4 14 -31 32 -62 l31 -55 -36 7 c-33 6 -37 4 -53 -25
l-16 -32 -27 46 c-14 26 -32 47 -38 47 -8 0 -1 -19 16 -48 16 -27 32 -59 36
-70 10 -32 20 -27 38 18 17 43 28 47 85 31 37 -11 37 -11 16 32 -40 80 -84
137 -84 111z"/>
<path d="M3604 2278 c-4 -7 -3 -8 4 -4 12 7 16 16 8 16 -3 0 -8 -5 -12 -12z"/>
<path d="M3572 2223 c2 -9 32 -28 73 -46 86 -36 95 -43 95 -73 0 -13 -30 -95
-66 -180 -99 -236 -135 -327 -130 -331 9 -9 75 10 80 23 4 11 -1 13 -20 8
l-25 -6 16 38 c9 22 41 98 70 169 29 72 65 158 79 192 30 73 33 114 9 136 -16
13 -94 51 -161 78 -19 7 -23 6 -20 -8z"/>
<path d="M3581 2094 c0 -11 3 -14 6 -6 3 7 2 16 -1 19 -3 4 -6 -2 -5 -13z"/>
<path d="M4002 2066 c-33 -38 -34 -66 -1 -66 10 0 19 -7 19 -15 0 -8 7 -15 15
-15 8 0 12 6 9 14 -4 10 2 16 18 18 33 4 33 32 1 68 l-29 32 -32 -36z"/>
<path d="M1916 2083 c-15 -15 -3 -52 24 -78 l30 -29 30 29 c22 21 30 37 28 55
-3 23 -7 25 -55 27 -28 1 -54 -1 -57 -4z"/>
<path d="M3640 2050 c0 -7 3 -10 7 -7 3 4 3 10 0 14 -4 3 -7 0 -7 -7z"/>
<path d="M3621 2021 c-8 -6 -9 -11 -3 -15 6 -3 14 -1 17 5 9 14 2 20 -14 10z"/>
<path d="M3570 1973 c0 -26 34 -33 43 -9 4 10 1 13 -10 9 -8 -3 -19 0 -24 8
-6 11 -9 8 -9 -8z"/>
<path d="M1865 1968 c-19 -63 -46 -258 -35 -258 3 0 21 13 40 29 l35 29 36
-35 37 -35 7 64 c4 34 13 88 20 118 8 30 13 56 11 58 -2 2 -18 -4 -35 -12 -44
-23 -57 -20 -81 19 -24 38 -29 41 -35 23z m63 -88 c7 0 22 5 34 11 26 14 29 9
19 -32 -5 -19 -12 -51 -16 -73 l-6 -38 -23 21 c-27 25 -34 26 -58 4 -10 -9
-21 -14 -24 -10 -6 6 14 145 24 161 2 5 12 -3 21 -18 8 -14 22 -26 29 -26z"/>
<path d="M1911 1834 c0 -11 3 -14 6 -6 3 7 2 16 -1 19 -3 4 -6 -2 -5 -13z"/>
<path d="M3047 1813 c-79 -84 -87 -96 -87 -131 0 -57 27 -87 78 -87 26 0 48 7
63 20 l22 20 -7 -29 c-4 -17 -16 -42 -27 -58 l-20 -28 66 0 67 0 -20 33 c-11
17 -23 42 -27 55 l-6 22 35 -21 c82 -48 163 29 120 113 -9 18 -51 67 -93 108
l-77 75 -87 -92z m6 -45 c-23 -24 -46 -54 -52 -68 -5 -14 -10 -18 -10 -9 -1
18 35 70 70 98 39 33 36 24 -8 -21z"/>
<path d="M3775 1900 c-3 -6 1 -7 9 -4 18 7 21 14 7 14 -6 0 -13 -4 -16 -10z"/>
<path d="M3730 1879 c0 -5 5 -7 10 -4 6 3 10 8 10 11 0 2 -4 4 -10 4 -5 0 -10
-5 -10 -11z"/>
<path d="M3580 1810 c0 -7 3 -10 7 -7 3 4 3 10 0 14 -4 3 -7 0 -7 -7z"/>
<path d="M2747 1737 c-19 -29 -53 -72 -75 -97 l-39 -45 53 -62 c29 -34 61 -76
70 -93 10 -16 21 -30 25 -30 3 0 19 19 34 42 16 24 50 66 77 94 l48 50 -42 40
c-22 21 -57 65 -78 96 l-38 57 -35 -52z m4 -54 c-5 -10 -24 -31 -42 -48 -31
-29 -31 -28 5 18 40 49 54 60 37 30z"/>
<path d="M2178 1733 c7 -3 16 -2 19 1 4 3 -2 6 -13 5 -11 0 -14 -3 -6 -6z"/>
<path d="M3779 1728 c-41 -9 -49 -15 -78 -65 -17 -31 -30 -58 -27 -60 2 -2 19
-1 37 2 25 5 46 22 79 61 25 30 47 59 48 64 4 11 4 11 -59 -2z"/>
<path d="M3840 1690 c-7 -13 -7 -20 -1 -20 6 0 15 9 21 20 7 13 7 20 1 20 -6
0 -15 -9 -21 -20z"/>
<path d="M1877 1694 c-4 -4 -7 -15 -7 -25 0 -9 -7 -19 -15 -23 -8 -3 -15 -15
-15 -26 0 -15 7 -20 26 -20 19 0 25 -4 20 -15 -4 -10 1 -15 14 -15 13 0 18 5
14 15 -5 11 1 15 20 15 19 0 26 5 26 20 0 10 -6 23 -14 27 -8 4 -15 17 -17 28
-4 20 -38 32 -52 19z"/>
<path d="M2168 1633 c6 -2 18 -2 25 0 6 3 1 5 -13 5 -14 0 -19 -2 -12 -5z"/>
<path d="M3773 1614 c-22 -21 -24 -25 -9 -23 10 2 25 14 34 27 19 29 9 28 -25
-4z"/>
<path d="M4070 1624 c-71 -31 -112 -89 -112 -159 0 -73 22 -99 116 -144 113
-53 131 -92 69 -141 -46 -36 -119 -20 -162 37 l-20 28 -1 -82 0 -83 53 -2 c92
-3 131 3 177 28 67 37 95 83 95 160 0 77 -20 103 -115 146 -78 35 -100 54
-100 83 0 61 100 79 160 29 l31 -27 -3 69 -3 69 -75 2 c-50 2 -87 -2 -110 -13z
m-32 -61 c-9 -10 -23 -31 -31 -48 -10 -19 -16 -24 -17 -13 0 16 45 78 57 78 4
0 -1 -8 -9 -17z m-41 -140 c-4 -3 -7 0 -7 7 0 7 3 10 7 7 3 -4 3 -10 0 -14z
m192 -247 c-23 -21 -23 -21 -6 0 9 11 18 36 19 55 l1 34 4 -34 c4 -26 -1 -39
-18 -55z"/>
<path d="M3829 1576 c-2 -2 -58 -14 -124 -25 -164 -30 -158 -27 -139 -56 13
-19 15 -58 12 -242 -2 -120 -7 -227 -12 -237 -8 -17 -6 -18 15 -13 13 4 85 16
159 28 74 12 138 25 142 28 3 3 9 33 13 66 l8 60 -26 -24 c-15 -14 -51 -29
-89 -37 -94 -20 -89 -24 -86 58 l3 73 44 7 c25 4 51 3 62 -3 18 -9 19 -5 19
57 0 63 -1 66 -17 52 -10 -9 -39 -20 -65 -26 l-48 -10 0 68 0 67 69 12 c53 10
75 10 91 1 12 -6 24 -10 26 -7 3 3 2 28 -2 56 -6 44 -10 51 -29 51 -12 0 -24
-2 -26 -4z m-212 -403 c-1 -59 -3 -13 -3 102 0 116 2 164 3 108 2 -56 2 -151
0 -210z"/>
<path d="M2123 1533 c9 -2 23 -2 30 0 6 3 -1 5 -18 5 -16 0 -22 -2 -12 -5z"/>
<path d="M4103 1515 c-7 -8 -13 -20 -13 -27 1 -9 5 -7 14 4 7 10 24 22 37 27
l24 10 -25 0 c-14 0 -31 -6 -37 -14z"/>
<path d="M3912 1490 c0 -19 2 -27 5 -17 2 9 2 25 0 35 -3 9 -5 1 -5 -18z"/>
<path d="M4275 1480 c-3 -5 -1 -10 4 -10 6 0 11 5 11 10 0 6 -2 10 -4 10 -3 0
-8 -4 -11 -10z"/>
<path d="M3237 1467 c-54 -9 -58 -11 -51 -31 5 -11 10 -117 11 -233 3 -180 1
-217 -12 -244 -16 -29 -15 -31 2 -26 10 3 78 16 151 28 73 13 139 28 146 33 8
6 16 37 19 70 l6 59 -29 -28 c-20 -20 -49 -32 -92 -41 -34 -7 -65 -11 -70 -8
-14 9 -9 355 6 397 16 43 17 42 -87 24z m0 -364 c-1 -54 -3 -10 -3 97 0 107 2
151 3 98 2 -54 2 -142 0 -195z"/>
<path d="M3350 1439 c-6 -11 -10 -30 -8 -42 2 -15 6 -9 14 21 12 46 10 53 -6
21z"/>
<path d="M3783 1453 c9 -2 23 -2 30 0 6 3 -1 5 -18 5 -16 0 -22 -2 -12 -5z"/>
<path d="M3722 1403 c1 -48 1 -48 5 -8 3 22 10 43 16 47 8 5 6 8 -5 8 -15 0
-18 -8 -16 -47z"/>
<path d="M2925 1409 c-77 -15 -141 -28 -142 -29 -1 0 5 -16 13 -36 21 -50 17
-432 -5 -458 -8 -9 -12 -18 -10 -21 6 -6 321 53 330 62 4 4 9 34 11 65 l3 57
-25 -24 c-15 -15 -51 -30 -90 -39 -96 -23 -91 -26 -88 56 l3 73 44 7 c25 4 51
3 62 -3 18 -9 19 -5 19 57 0 64 -1 66 -18 51 -10 -9 -40 -20 -65 -23 l-47 -7
0 65 0 65 70 12 c49 8 77 8 90 1 10 -5 21 -10 24 -10 8 0 8 74 0 94 -8 20 -10
20 -179 -15z m-76 -227 c-2 -147 -7 -136 -11 25 -2 61 0 109 4 107 5 -3 7 -62
7 -132z m-2 -169 c-3 -10 -5 -4 -5 12 0 17 2 24 5 18 2 -7 2 -21 0 -30z"/>
<path d="M3132 1395 c0 -16 2 -22 5 -12 2 9 2 23 0 30 -3 6 -5 -1 -5 -18z"/>
<path d="M2105 1364 c-5 -1 -79 -15 -163 -30 -83 -15 -157 -31 -164 -35 -9 -6
-8 -12 3 -25 20 -24 21 -547 1 -582 -8 -13 -12 -25 -10 -27 4 -3 348 61 353
66 1 2 6 35 10 74 l8 70 -37 -33 c-20 -17 -38 -32 -40 -32 -9 0 -113 -21 -128
-26 -16 -5 -18 4 -18 95 l0 100 45 7 c25 3 56 4 70 2 25 -5 25 -4 25 64 l0 69
-27 -20 c-16 -10 -47 -22 -70 -25 l-43 -6 0 84 0 83 59 13 c58 12 97 11 134
-5 15 -6 17 -1 17 46 0 56 -8 78 -25 73z m-268 -507 c-1 -67 -3 -9 -3 128 0
138 2 192 3 122 2 -71 2 -183 0 -250z"/>
<path d="M2635 1356 l-59 -11 -56 -137 c-30 -75 -58 -139 -61 -142 -3 -3 -31
49 -62 115 -54 115 -58 121 -82 115 -14 -4 -46 -9 -71 -13 -41 -5 -45 -8 -38
-27 13 -34 16 -425 4 -459 -5 -17 -8 -32 -6 -34 2 -2 35 2 74 8 l71 12 -14 28
c-11 20 -15 62 -14 151 l1 123 59 -120 c38 -77 64 -120 74 -120 11 0 33 42 70
135 l54 135 0 -123 c1 -71 -4 -132 -10 -144 -6 -11 -9 -21 -7 -23 4 -5 149 23
156 30 3 2 -1 12 -9 21 -11 13 -14 63 -14 228 0 186 2 215 18 239 21 32 21 32
-78 13z m-66 -130 c-18 -42 -33 -75 -35 -73 -2 2 10 38 27 81 18 42 33 75 35
73 2 -2 -10 -38 -27 -81z m-312 -298 c-1 -57 -3 -11 -3 102 0 113 2 159 3 103
2 -57 2 -149 0 -205z m257 163 c-9 -23 -18 -40 -20 -38 -2 2 4 22 13 45 9 23
18 40 20 38 2 -2 -4 -22 -13 -45z m103 -138 c-2 -32 -3 -6 -3 57 0 63 1 89 3
58 2 -32 2 -84 0 -115z m-130 70 c-4 -3 -7 0 -7 7 0 7 3 10 7 7 3 -4 3 -10 0
-14z"/>
<path d="M3340 1350 c0 -7 3 -10 7 -7 3 4 3 10 0 14 -4 3 -7 0 -7 -7z"/>
<path d="M3853 1290 c0 -41 2 -58 4 -37 2 20 2 54 0 75 -2 20 -4 3 -4 -38z"/>
<path d="M2153 1280 c0 -36 2 -50 4 -32 2 17 2 47 0 65 -2 17 -4 3 -4 -33z"/>
<path d="M2726 1318 c-3 -13 -5 -115 -4 -228 l2 -205 6 215 c3 118 9 221 13
228 5 6 4 12 -1 12 -5 0 -12 -10 -16 -22z"/>
<path d="M3043 1323 c4 -3 10 -3 14 0 3 4 0 7 -7 7 -7 0 -10 -3 -7 -7z"/>
<path d="M2940 1300 c0 -5 4 -10 9 -10 6 0 13 5 16 10 3 6 -1 10 -9 10 -9 0
-16 -4 -16 -10z"/>
<path d="M3724 1226 c-3 -7 -4 -33 -1 -57 l4 -44 1 47 c2 43 5 48 30 54 47 10
48 12 9 13 -23 1 -40 -4 -43 -13z"/>
<path d="M1963 1223 c-7 -2 -12 -17 -12 -31 2 -24 2 -24 6 -5 3 15 14 25 31
29 45 10 48 12 17 12 -16 0 -36 -2 -42 -5z"/>
<path d="M4301 1191 c-1 -8 -11 -28 -24 -45 -37 -49 -43 -63 -18 -41 28 25 54
72 47 88 -3 8 -5 7 -5 -2z"/>
<path d="M3922 1140 c0 -14 2 -19 5 -12 2 6 2 18 0 25 -3 6 -5 1 -5 -13z"/>
<path d="M2086 1085 c4 -8 8 -15 10 -15 2 0 4 7 4 15 0 8 -4 15 -10 15 -5 0
-7 -7 -4 -15z"/>
<path d="M2983 1093 c9 -2 23 -2 30 0 6 3 -1 5 -18 5 -16 0 -22 -2 -12 -5z"/>
<path d="M3530 1080 c0 -7 3 -10 7 -7 3 4 3 10 0 14 -4 3 -7 0 -7 -7z"/>
<path d="M4195 1078 c-11 -7 -36 -15 -55 -20 -34 -7 -33 -7 7 -4 23 2 52 11
65 20 26 18 13 21 -17 4z"/>
<path d="M3990 1052 c0 -5 14 -7 30 -4 17 2 30 6 30 8 0 2 -13 4 -30 4 -16 0
-30 -4 -30 -8z"/>
<path d="M3520 1016 c0 -41 -7 -46 -85 -63 l-60 -13 65 6 c73 6 90 19 90 71 0
18 -2 33 -5 33 -3 0 -5 -15 -5 -34z"/>
<path d="M3910 1040 c0 -7 3 -10 7 -7 3 4 3 10 0 14 -4 3 -7 0 -7 -7z"/>
<path d="M3805 1020 l-40 -7 40 0 c22 -1 54 3 70 7 l30 8 -30 -1 c-16 0 -48
-3 -70 -7z"/>
<path d="M3143 975 c0 -27 2 -38 4 -22 2 15 2 37 0 50 -2 12 -4 0 -4 -28z"/>
<path d="M4255 1005 c-5 -2 -31 -6 -58 -10 -26 -3 -45 -10 -42 -14 2 -5 16 -6
30 -3 14 2 36 -3 50 -12 24 -16 26 -16 34 8 6 13 16 26 23 29 14 6 -21 8 -37
2z"/>
<path d="M2092 970 c0 -19 2 -27 5 -17 2 9 2 25 0 35 -3 9 -5 1 -5 -18z"/>
<path d="M3625 993 c-16 -3 -34 -8 -39 -13 -9 -9 54 -3 114 10 l35 8 -40 -1
c-22 0 -53 -2 -70 -4z"/>
<path d="M4022 965 c-90 -14 -129 -32 -47 -21 28 3 76 9 108 13 31 3 57 10 57
14 0 11 -13 10 -118 -6z"/>
<path d="M1973 963 c-13 -3 -23 -12 -23 -21 0 -11 3 -13 8 -6 4 6 21 16 37 22
30 10 19 13 -22 5z"/>
<path d="M3530 903 c-195 -35 -481 -86 -635 -113 -261 -47 -469 -85 -625 -114
-65 -12 -65 -12 -68 -48 l-3 -36 -67 -12 c-37 -7 -70 -14 -74 -17 -4 -2 6 -25
22 -52 17 -27 30 -53 30 -59 0 -6 -11 -37 -25 -68 -14 -32 -23 -60 -20 -62 5
-5 232 31 278 44 11 4 17 15 17 34 0 25 5 30 35 36 29 5 52 -1 113 -28 98 -45
195 -74 305 -91 85 -14 89 -16 139 -66 l52 -52 55 54 c55 53 58 55 136 65 155
21 361 106 505 207 44 31 82 60 85 65 15 25 -30 5 -105 -46 -100 -68 -215
-126 -316 -159 -74 -24 -202 -51 -209 -44 -2 2 10 19 26 37 23 26 48 38 117
58 146 41 345 147 411 218 32 34 41 33 41 -5 0 -27 3 -31 23 -26 12 3 81 15
154 28 l132 22 -30 58 -29 58 30 66 c16 36 30 67 30 69 0 1 -28 -3 -62 -10
-92 -20 -98 -19 -98 15 0 17 -3 32 -7 34 -5 2 -168 -25 -363 -60z m336 8 c0
-15 -9 -22 -38 -26 -49 -9 -49 -22 0 -19 21 2 27 0 12 -3 -36 -7 -49 -23 -19
-24 l24 0 -22 -9 c-32 -13 -29 -17 10 -14 31 3 31 3 -8 -11 l-40 -13 40 -2 40
-2 -33 -8 c-47 -11 -55 -24 -9 -16 23 4 37 3 37 -4 0 -5 -13 -10 -30 -10 -16
0 -30 -4 -30 -8 0 -5 15 -7 33 -5 l32 3 -30 -10 c-35 -11 -384 -75 -1090 -200
-151 -27 -399 -69 -445 -76 l-35 -6 29 16 c15 9 38 16 50 16 19 1 18 2 -7 16
-15 8 -25 19 -22 24 4 6 -6 10 -22 10 -22 0 -25 2 -13 10 11 7 7 10 -17 10
-27 0 -30 3 -25 23 5 19 7 19 10 4 3 -15 9 -17 30 -12 15 4 29 11 30 16 6 15
20 10 26 -8 3 -11 4 -7 3 7 -2 20 -9 26 -37 31 -19 4 -27 7 -17 8 22 1 23 21
0 21 -33 0 -5 10 53 19 32 4 210 36 394 70 184 34 371 68 415 76 44 7 143 25
220 38 77 14 208 37 290 51 83 15 155 28 160 30 28 11 51 5 51 -13z m126 -70
l-27 -50 23 -46 c12 -25 22 -47 22 -49 0 -2 -21 -7 -47 -10 -27 -4 -64 -9 -83
-12 l-35 -5 28 16 c28 16 34 48 29 146 -2 35 -2 35 51 46 28 5 55 11 58 11 4
1 -5 -20 -19 -47z m-312 -176 c0 -10 -112 -86 -176 -119 -91 -46 -156 -71
-256 -98 -121 -33 -363 -32 -495 1 -51 12 -93 26 -93 31 0 4 17 10 38 13 50 7
971 173 980 176 1 1 2 -1 2 -4z m-1423 -32 c-4 -3 -10 -3 -14 0 -3 4 0 7 7 7
7 0 10 -3 7 -7z m40 -49 c-3 -3 -12 -4 -19 -1 -8 3 -5 6 6 6 11 1 17 -2 13 -5z
m-97 -99 c0 -66 -2 -75 -18 -75 -10 0 -23 -5 -29 -11 -16 -16 -25 4 -14 33 6
15 4 32 -5 49 -13 25 -12 27 11 33 14 4 25 11 25 17 0 6 -4 8 -9 5 -5 -4 -17
-3 -28 1 -16 6 -15 8 7 14 59 16 60 15 60 -66z m47 38 c-4 -3 -7 0 -7 7 0 7 3
10 7 7 3 -4 3 -10 0 -14z m0 -30 c-4 -3 -7 0 -7 7 0 7 3 10 7 7 3 -4 3 -10 0
-14z m43 -13 c-8 -5 -24 -9 -35 -9 -16 1 -16 2 5 9 35 11 48 11 30 0z m415
-44 c69 -20 98 -35 125 -61 34 -35 34 -35 10 -35 -66 1 -245 52 -325 93 -56
29 -22 34 46 6 66 -26 221 -70 227 -64 6 6 -28 19 -130 49 -48 15 -90 31 -94
38 -9 14 28 8 141 -26z m-448 7 c-4 -3 -10 -3 -14 0 -3 4 0 7 7 7 7 0 10 -3 7
-7z m823 -128 l-80 -80 -80 80 -81 81 161 -1 160 0 -80 -80z m-835 65 c-69
-19 -136 -27 -132 -16 4 11 65 23 127 23 l35 1 -30 -8z"/>
<path d="M3800 900 c-13 -9 -13 -10 0 -9 8 0 24 4 35 9 l20 9 -20 0 c-11 0
-27 -4 -35 -9z"/>
<path d="M3675 863 c-18 -3 -20 -12 -20 -68 0 -44 4 -65 12 -65 26 0 63 20 63
35 0 13 -4 14 -20 5 -16 -9 -20 -8 -20 5 0 8 7 15 15 15 8 0 15 7 15 15 0 8
-7 15 -15 15 -8 0 -15 5 -15 10 0 6 9 10 20 10 11 0 20 7 20 15 0 15 -14 17
-55 8z"/>
<path d="M3590 818 l-11 -33 -15 28 c-23 43 -39 28 -42 -41 -2 -51 0 -62 13
-62 10 0 15 10 15 33 l1 32 14 -25 14 -25 10 25 10 25 0 -27 c1 -20 5 -25 19
-22 25 7 26 124 0 124 -9 0 -21 -14 -28 -32z"/>
<path d="M3430 799 c0 -12 -5 -39 -12 -60 -13 -46 -2 -64 19 -31 18 26 33 29
33 6 0 -9 7 -14 18 -12 9 2 16 7 15 11 -18 87 -28 107 -50 107 -17 0 -23 -6
-23 -21z m27 -41 c-3 -8 -6 -5 -6 6 -1 11 2 17 5 13 3 -3 4 -12 1 -19z"/>
<path d="M3342 800 c-50 -21 -55 -104 -5 -116 14 -4 33 -3 41 2 15 10 28 74
14 74 -18 -1 -32 -18 -27 -32 10 -24 -13 -31 -25 -8 -15 28 5 64 31 57 15 -4
19 -1 17 10 -4 21 -17 24 -46 13z"/>
<path d="M3183 773 c-21 -4 -23 -10 -23 -64 0 -53 2 -59 21 -59 18 0 20 4 15
26 -5 17 -3 23 4 19 5 -3 10 -13 10 -21 0 -8 9 -14 20 -14 23 0 26 10 8 28
-10 10 -10 17 0 32 9 15 10 26 2 40 -11 20 -15 21 -57 13z m35 -35 c-6 -18
-28 -21 -28 -4 0 9 7 16 16 16 9 0 14 -5 12 -12z"/>
<path d="M3110 710 c0 -54 -19 -70 -21 -17 -1 17 -1 38 0 45 1 6 -7 12 -18 12
-18 0 -21 -6 -20 -42 2 -54 14 -78 39 -78 33 0 50 28 50 81 0 37 -4 49 -15 49
-11 0 -15 -12 -15 -50z"/>
<path d="M2962 724 c-33 -23 -31 -90 3 -106 22 -10 29 -8 50 12 29 27 33 71 9
94 -19 20 -34 20 -62 0z m46 -39 c3 -26 -13 -50 -27 -41 -6 4 -11 21 -11 37 0
24 4 30 18 27 9 -2 18 -12 20 -23z"/>
<path d="M2914 722 c-6 -4 -16 -16 -22 -27 -10 -17 -11 -17 -12 -3 0 21 -12
29 -29 19 -10 -7 -10 -14 3 -39 9 -17 16 -40 16 -52 0 -11 7 -20 15 -20 9 0
15 9 15 24 0 13 7 40 16 61 16 39 15 49 -2 37z"/>
<path d="M2733 693 c-21 -4 -23 -10 -23 -68 0 -47 3 -63 13 -61 6 3 24 7 40
10 15 4 27 13 27 21 0 11 -7 14 -25 9 -15 -4 -25 -2 -25 5 0 6 6 11 14 11 8 0
16 7 20 15 4 10 -1 15 -14 15 -11 0 -20 5 -20 10 0 6 11 10 25 10 18 0 23 4
19 15 -6 15 -11 16 -51 8z"/>
<path d="M2632 668 c-13 -13 -16 -58 -4 -58 5 0 17 -7 28 -16 18 -15 18 -15
-8 -11 -22 3 -28 0 -28 -14 0 -26 34 -25 61 2 28 28 23 38 -30 66 -1 1 0 7 4
13 5 8 11 8 21 -1 11 -9 14 -7 14 10 0 15 -6 21 -23 21 -13 0 -28 -5 -35 -12z"/>
<path d="M2569 666 c-2 -2 -2 -32 -1 -65 3 -44 8 -61 18 -61 11 0 14 16 14 65
0 48 -4 65 -13 65 -8 0 -16 -2 -18 -4z"/>
<path d="M2470 593 c-17 -67 -35 -72 -35 -10 l0 42 -39 0 -38 0 -2 -63 c-1
-53 2 -62 17 -62 11 0 17 8 17 22 0 20 1 21 13 4 17 -24 83 -13 90 15 6 22 27
26 27 4 0 -8 7 -15 15 -15 19 0 19 4 0 68 -22 73 -46 71 -65 -5z m-60 -4 c0
-5 -4 -9 -10 -9 -5 0 -10 7 -10 16 0 8 5 12 10 9 6 -3 10 -10 10 -16z m97 -6
c-4 -3 -10 -3 -14 0 -3 4 0 7 7 7 7 0 10 -3 7 -7z"/>
<path d="M3958 746 c-4 -18 -1 -26 8 -26 16 0 18 18 5 38 -6 10 -10 7 -13 -12z"/>
<path d="M3499 593 c-13 -15 -12 -15 11 -3 34 17 36 20 18 20 -9 0 -22 -7 -29
-17z"/>
<path d="M3363 573 c9 -2 25 -2 35 0 9 3 1 5 -18 5 -19 0 -27 -2 -17 -5z"/>
<path d="M3448 573 c6 -2 18 -2 25 0 6 3 1 5 -13 5 -14 0 -19 -2 -12 -5z"/>
<path d="M3126 535 c-65 -14 -121 -26 -123 -29 -7 -7 73 0 85 8 5 3 56 13 113
21 56 9 105 18 108 20 11 11 -72 2 -183 -20z"/>
<path d="M3320 520 c-37 -12 -47 -18 -30 -19 14 0 43 8 65 18 50 24 36 24 -35
1z"/>
<path d="M2947 484 c5 -14 -3 -15 -73 -10 l-79 5 85 -14 c112 -18 155 -18 169
-1 7 9 8 17 3 20 -6 3 -12 -1 -16 -9 -8 -22 -54 -19 -68 5 -15 24 -30 27 -21
4z"/>
<path d="M3110 473 c0 -9 13 -11 48 -6 72 9 78 18 11 18 -40 0 -59 -4 -59 -12z"/>
<path d="M2160 475 c0 -8 5 -15 10 -15 6 0 10 7 10 15 0 8 -4 15 -10 15 -5 0
-10 -7 -10 -15z"/>
<path d="M2977 352 c-22 -24 -21 -35 3 -57 19 -17 21 -17 40 0 25 22 25 37 2
58 -23 21 -25 21 -45 -1z"/>
<path d="M4172 933 c16 -38 28 -51 28 -29 0 22 -18 56 -30 56 -6 0 -5 -12 2
-27z"/>
<path d="M2527 918 c-20 -44 -32 -85 -21 -75 10 10 45 100 40 104 -2 2 -10
-11 -19 -29z"/>
<path d="M3290 929 c-30 -5 -59 -11 -65 -14 -17 -8 107 6 129 15 26 11 7 10
-64 -1z"/>
<path d="M4105 900 c-3 -6 -3 -19 0 -30 7 -22 58 -29 70 -9 4 6 0 9 -11 7 -13
-2 -20 4 -22 20 -3 23 -26 30 -37 12z"/>
<path d="M3061 889 c-30 -5 -57 -12 -60 -15 -9 -9 112 7 129 17 19 11 7 10
-69 -2z"/>
<path d="M2883 856 c-34 -6 -65 -15 -70 -19 -4 -5 3 -6 17 -3 14 3 52 10 84
16 33 5 62 12 64 15 7 7 -23 4 -95 -9z"/>
<path d="M1950 830 c0 -7 3 -10 7 -7 3 4 3 10 0 14 -4 3 -7 0 -7 -7z"/>
<path d="M2350 820 c0 -7 3 -10 7 -7 3 4 3 10 0 14 -4 3 -7 0 -7 -7z"/>
<path d="M2475 820 c-19 -8 -19 -9 3 -9 12 -1 22 4 22 9 0 6 -1 10 -2 9 -2 0
-12 -4 -23 -9z"/>
<path d="M2665 815 l-60 -13 60 5 c33 3 69 9 80 14 l20 8 -20 -1 c-11 0 -47
-6 -80 -13z"/>
<path d="M2162 800 c0 -14 2 -19 5 -12 2 6 2 18 0 25 -3 6 -5 1 -5 -13z"/>
<path d="M2150 736 c0 -13 -6 -27 -12 -29 -8 -3 -6 -6 5 -6 12 -1 17 7 17 29
0 17 -2 30 -5 30 -3 0 -5 -11 -5 -24z"/>
<path d="M2348 753 c6 -2 18 -2 25 0 6 3 1 5 -13 5 -14 0 -19 -2 -12 -5z"/>
<path d="M2245 740 c-4 -7 8 -8 37 -4 57 9 61 14 10 14 -22 0 -44 -5 -47 -10z"/>
<path d="M2050 690 c-24 -8 -24 -8 5 -8 17 0 39 3 50 8 18 8 18 9 -5 8 -14 0
-36 -4 -50 -8z"/>
<path d="M1983 673 c9 -2 23 -2 30 0 6 3 -1 5 -18 5 -16 0 -22 -2 -12 -5z"/>
<path d="M1865 658 c-27 -5 -54 -13 -58 -17 -9 -9 107 7 137 19 20 8 19 9 -4
8 -14 0 -47 -5 -75 -10z"/>
<path d="M2075 615 c-38 -7 -101 -19 -140 -25 -82 -14 -99 -23 -35 -19 l45 4
-2 -45 c0 -31 1 -35 4 -13 6 46 42 69 126 83 66 11 127 31 87 28 -8 0 -46 -6
-85 -13z"/>
<path d="M3640 569 c-117 -80 -237 -134 -377 -169 -24 -6 -43 -15 -43 -19 0
-19 188 39 285 87 72 35 215 130 215 142 0 14 3 16 -80 -41z"/>
<path d="M3780 539 c-48 -29 -94 -69 -80 -69 10 0 120 78 120 86 0 6 -3 5 -40
-17z"/>
<path d="M1865 530 c-3 -5 -1 -10 4 -10 6 0 11 5 11 10 0 6 -2 10 -4 10 -3 0
-8 -4 -11 -10z"/>
<path d="M2000 523 c1 -18 18 -35 24 -24 4 6 4 16 1 21 -7 12 -25 13 -25 3z"/>
<path d="M1973 473 c9 -2 25 -2 35 0 9 3 1 5 -18 5 -19 0 -27 -2 -17 -5z"/>
<path d="M3665 450 c-3 -6 1 -7 9 -4 18 7 21 14 7 14 -6 0 -13 -4 -16 -10z"/>
<path d="M3578 408 c-38 -17 -68 -35 -68 -39 0 -5 8 -5 18 -1 57 24 138 73
120 72 -2 0 -33 -14 -70 -32z"/>
<path d="M2410 406 c0 -9 141 -76 160 -76 9 0 20 -4 26 -9 14 -13 163 -49 229
-55 70 -6 49 1 -100 34 -81 18 -183 54 -302 107 -7 3 -13 2 -13 -1z"/>
<path d="M3463 343 c4 -3 10 -3 14 0 3 4 0 7 -7 7 -7 0 -10 -3 -7 -7z"/>
<path d="M3315 309 c-55 -15 -113 -29 -130 -29 -16 -1 -39 -6 -50 -11 -31 -14
76 -1 177 22 48 11 92 27 99 35 6 8 10 13 8 13 -2 -1 -49 -14 -104 -30z"/>
<path d="M3433 333 c4 -3 10 -3 14 0 3 4 0 7 -7 7 -7 0 -10 -3 -7 -7z"/>
</g>
</svg>
